<?xml version="1.0" encoding="UTF-8" standalone="no"?><!-- Generator: Gravit.io --><svg xmlns="http://www.w3.org/2000/svg" xmlns:xlink="http://www.w3.org/1999/xlink" style="isolation:isolate" viewBox="0 0 3000 3000" width="3000pt" height="3000pt"><defs><clipPath id="_clipPath_qnhvVa93fFToIMKXwECnWhAahYJwac8A"><rect width="3000" height="3000"/></clipPath></defs><g clip-path="url(#_clipPath_qnhvVa93fFToIMKXwECnWhAahYJwac8A)"><rect width="3000" height="3000" style="fill:rgb(21,77,60)"/><rect x="0" y="0" width="1497" height="3000" transform="matrix(1,0,0,1,0,0)" fill="rgb(58,59,59)" fill-opacity="0.1"/><g><rect x="1221" y="222" width="1881" height="306" transform="matrix(1,0,0,1,0,0)" fill="rgb(15,62,48)"/><rect x="1221" y="813" width="1881" height="306" transform="matrix(1,0,0,1,0,0)" fill="rgb(15,62,48)"/><rect x="1221" y="1450.265" width="1881" height="306" transform="matrix(1,0,0,1,0,0)" fill="rgb(15,62,48)"/><rect x="1221" y="2041.265" width="1881" height="306" transform="matrix(1,0,0,1,0,0)" fill="rgb(15,62,48)"/><rect x="1221" y="2620" width="1881" height="306" transform="matrix(1,0,0,1,0,0)" fill="rgb(15,62,48)"/></g><g style="isolation:isolate"/><g><path d=" M 2863.487 722.778 L 2822.061 681.352 C 2812.066 671.357 2811.959 655.234 2821.822 645.371 L 2821.822 645.371 C 2831.685 635.508 2847.807 635.615 2857.803 645.61 L 2884.72 672.528 L 2911.21 646.038 C 2921.205 636.043 2937.327 635.935 2947.19 645.798 L 2947.19 645.798 C 2957.053 655.662 2956.946 671.784 2946.951 681.779 L 2902.509 726.221 C 2892.514 736.216 2876.392 736.324 2866.528 726.46 L 2866.528 726.46 C 2865.379 725.311 2864.366 724.077 2863.487 722.778 Z  M 2861.277 613.441 C 2861.277 600.62 2871.686 590.212 2884.506 590.212 C 2897.327 590.212 2907.735 600.62 2907.735 613.441 C 2907.735 626.261 2897.327 636.67 2884.506 636.67 C 2871.686 636.67 2861.277 626.261 2861.277 613.441 Z " fill-rule="evenodd" fill="rgb(18,66,51)"/><path d=" M 2611.487 722.778 L 2570.061 681.352 C 2560.066 671.357 2559.959 655.234 2569.822 645.371 L 2569.822 645.371 C 2579.685 635.508 2595.807 635.615 2605.803 645.61 L 2632.72 672.528 L 2659.21 646.038 C 2669.205 636.043 2685.327 635.935 2695.19 645.798 L 2695.19 645.798 C 2705.053 655.662 2704.946 671.784 2694.951 681.779 L 2650.509 726.221 C 2640.514 736.216 2624.392 736.324 2614.528 726.46 L 2614.528 726.46 C 2613.379 725.311 2612.366 724.077 2611.487 722.778 Z  M 2609.277 613.441 C 2609.277 600.62 2619.686 590.212 2632.506 590.212 C 2645.327 590.212 2655.735 600.62 2655.735 613.441 C 2655.735 626.261 2645.327 636.67 2632.506 636.67 C 2619.686 636.67 2609.277 626.261 2609.277 613.441 Z " fill-rule="evenodd" fill="rgb(18,66,51)"/><path d=" M 2368.487 722.778 L 2327.061 681.352 C 2317.066 671.357 2316.959 655.234 2326.822 645.371 L 2326.822 645.371 C 2336.685 635.508 2352.807 635.615 2362.803 645.61 L 2389.72 672.528 L 2416.21 646.038 C 2426.205 636.043 2442.327 635.935 2452.19 645.798 L 2452.19 645.798 C 2462.053 655.662 2461.946 671.784 2451.951 681.779 L 2407.509 726.221 C 2397.514 736.216 2381.392 736.324 2371.528 726.46 L 2371.528 726.46 C 2370.379 725.311 2369.366 724.077 2368.487 722.778 Z  M 2366.277 613.441 C 2366.277 600.62 2376.686 590.212 2389.506 590.212 C 2402.327 590.212 2412.735 600.62 2412.735 613.441 C 2412.735 626.261 2402.327 636.67 2389.506 636.67 C 2376.686 636.67 2366.277 626.261 2366.277 613.441 Z " fill-rule="evenodd" fill="rgb(18,66,51)"/><path d=" M 2099.475 722.778 L 2058.049 681.352 C 2048.054 671.357 2047.947 655.234 2057.81 645.371 L 2057.81 645.371 C 2067.673 635.508 2083.795 635.615 2093.79 645.61 L 2120.708 672.528 L 2147.197 646.038 C 2157.193 636.043 2173.315 635.935 2183.178 645.798 L 2183.178 645.798 C 2193.041 655.662 2192.934 671.784 2182.939 681.779 L 2138.497 726.221 C 2128.502 736.216 2112.379 736.324 2102.516 726.46 L 2102.516 726.46 C 2101.367 725.311 2100.354 724.077 2099.475 722.778 Z  M 2097.265 613.441 C 2097.265 600.62 2107.673 590.212 2120.494 590.212 C 2133.314 590.212 2143.723 600.62 2143.723 613.441 C 2143.723 626.261 2133.314 636.67 2120.494 636.67 C 2107.673 636.67 2097.265 626.261 2097.265 613.441 Z " fill-rule="evenodd" fill="rgb(18,66,51)"/><path d=" M 1847.475 722.778 L 1806.049 681.352 C 1796.054 671.357 1795.947 655.234 1805.81 645.371 L 1805.81 645.371 C 1815.673 635.508 1831.795 635.615 1841.79 645.61 L 1868.708 672.528 L 1895.197 646.038 C 1905.193 636.043 1921.315 635.935 1931.178 645.798 L 1931.178 645.798 C 1941.041 655.662 1940.934 671.784 1930.939 681.779 L 1886.497 726.221 C 1876.502 736.216 1860.379 736.324 1850.516 726.46 L 1850.516 726.46 C 1849.367 725.311 1848.354 724.077 1847.475 722.778 Z  M 1845.265 613.441 C 1845.265 600.62 1855.673 590.212 1868.494 590.212 C 1881.314 590.212 1891.723 600.62 1891.723 613.441 C 1891.723 626.261 1881.314 636.67 1868.494 636.67 C 1855.673 636.67 1845.265 626.261 1845.265 613.441 Z " fill-rule="evenodd" fill="rgb(18,66,51)"/><path d=" M 1604.475 722.778 L 1563.049 681.352 C 1553.054 671.357 1552.947 655.234 1562.81 645.371 L 1562.81 645.371 C 1572.673 635.508 1588.795 635.615 1598.79 645.61 L 1625.708 672.528 L 1652.197 646.038 C 1662.193 636.043 1678.315 635.935 1688.178 645.798 L 1688.178 645.798 C 1698.041 655.662 1697.934 671.784 1687.939 681.779 L 1643.497 726.221 C 1633.502 736.216 1617.379 736.324 1607.516 726.46 L 1607.516 726.46 C 1606.367 725.311 1605.354 724.077 1604.475 722.778 Z  M 1602.265 613.441 C 1602.265 600.62 1612.673 590.212 1625.494 590.212 C 1638.314 590.212 1648.723 600.62 1648.723 613.441 C 1648.723 626.261 1638.314 636.67 1625.494 636.67 C 1612.673 636.67 1602.265 626.261 1602.265 613.441 Z " fill-rule="evenodd" fill="rgb(18,66,51)"/></g><g><path d=" M 2368.487 1333.778 L 2327.061 1292.352 C 2317.066 1282.357 2316.959 1266.234 2326.822 1256.371 L 2326.822 1256.371 C 2336.685 1246.508 2352.807 1246.615 2362.803 1256.61 L 2389.72 1283.528 L 2416.21 1257.038 C 2426.205 1247.043 2442.327 1246.935 2452.19 1256.798 L 2452.19 1256.798 C 2462.053 1266.662 2461.946 1282.784 2451.951 1292.779 L 2407.509 1337.221 C 2397.514 1347.216 2381.392 1347.324 2371.528 1337.46 L 2371.528 1337.46 C 2370.379 1336.311 2369.366 1335.077 2368.487 1333.778 Z  M 2366.277 1224.441 C 2366.277 1211.62 2376.686 1201.212 2389.506 1201.212 C 2402.327 1201.212 2412.735 1211.62 2412.735 1224.441 C 2412.735 1237.261 2402.327 1247.67 2389.506 1247.67 C 2376.686 1247.67 2366.277 1237.261 2366.277 1224.441 Z " fill-rule="evenodd" fill="rgb(18,66,51)"/><path d=" M 2099.475 1333.778 L 2058.049 1292.352 C 2048.054 1282.357 2047.947 1266.234 2057.81 1256.371 L 2057.81 1256.371 C 2067.673 1246.508 2083.795 1246.615 2093.79 1256.61 L 2120.708 1283.528 L 2147.197 1257.038 C 2157.193 1247.043 2173.315 1246.935 2183.178 1256.798 L 2183.178 1256.798 C 2193.041 1266.662 2192.934 1282.784 2182.939 1292.779 L 2138.497 1337.221 C 2128.502 1347.216 2112.379 1347.324 2102.516 1337.46 L 2102.516 1337.46 C 2101.367 1336.311 2100.354 1335.077 2099.475 1333.778 Z  M 2097.265 1224.441 C 2097.265 1211.62 2107.673 1201.212 2120.494 1201.212 C 2133.314 1201.212 2143.723 1211.62 2143.723 1224.441 C 2143.723 1237.261 2133.314 1247.67 2120.494 1247.67 C 2107.673 1247.67 2097.265 1237.261 2097.265 1224.441 Z " fill-rule="evenodd" fill="rgb(18,66,51)"/><path d=" M 1847.475 1333.778 L 1806.049 1292.352 C 1796.054 1282.357 1795.947 1266.234 1805.81 1256.371 L 1805.81 1256.371 C 1815.673 1246.508 1831.795 1246.615 1841.79 1256.61 L 1868.708 1283.528 L 1895.197 1257.038 C 1905.193 1247.043 1921.315 1246.935 1931.178 1256.798 L 1931.178 1256.798 C 1941.041 1266.662 1940.934 1282.784 1930.939 1292.779 L 1886.497 1337.221 C 1876.502 1347.216 1860.379 1347.324 1850.516 1337.46 L 1850.516 1337.46 C 1849.367 1336.311 1848.354 1335.077 1847.475 1333.778 Z  M 1845.265 1224.441 C 1845.265 1211.62 1855.673 1201.212 1868.494 1201.212 C 1881.314 1201.212 1891.723 1211.62 1891.723 1224.441 C 1891.723 1237.261 1881.314 1247.67 1868.494 1247.67 C 1855.673 1247.67 1845.265 1237.261 1845.265 1224.441 Z " fill-rule="evenodd" fill="rgb(18,66,51)"/><path d=" M 1604.475 1333.778 L 1563.049 1292.352 C 1553.054 1282.357 1552.947 1266.234 1562.81 1256.371 L 1562.81 1256.371 C 1572.673 1246.508 1588.795 1246.615 1598.79 1256.61 L 1625.708 1283.528 L 1652.197 1257.038 C 1662.193 1247.043 1678.315 1246.935 1688.178 1256.798 L 1688.178 1256.798 C 1698.041 1266.662 1697.934 1282.784 1687.939 1292.779 L 1643.497 1337.221 C 1633.502 1347.216 1617.379 1347.324 1607.516 1337.46 L 1607.516 1337.46 C 1606.367 1336.311 1605.354 1335.077 1604.475 1333.778 Z  M 1602.265 1224.441 C 1602.265 1211.62 1612.673 1201.212 1625.494 1201.212 C 1638.314 1201.212 1648.723 1211.62 1648.723 1224.441 C 1648.723 1237.261 1638.314 1247.67 1625.494 1247.67 C 1612.673 1247.67 1602.265 1237.261 1602.265 1224.441 Z " fill-rule="evenodd" fill="rgb(18,66,51)"/></g><g><path d=" M 2104.969 2524.778 L 2063.543 2483.352 C 2053.548 2473.357 2053.44 2457.234 2063.304 2447.371 L 2063.304 2447.371 C 2073.167 2437.508 2089.289 2437.615 2099.284 2447.61 L 2126.202 2474.528 L 2152.691 2448.038 C 2162.687 2438.043 2178.809 2437.935 2188.672 2447.798 L 2188.672 2447.798 C 2198.535 2457.662 2198.428 2473.784 2188.433 2483.779 L 2143.991 2528.221 C 2133.996 2538.216 2117.873 2538.324 2108.01 2528.46 L 2108.01 2528.46 C 2106.861 2527.311 2105.848 2526.077 2104.969 2524.778 Z  M 2102.759 2415.441 C 2102.759 2402.62 2113.167 2392.212 2125.988 2392.212 C 2138.808 2392.212 2149.217 2402.62 2149.217 2415.441 C 2149.217 2428.261 2138.808 2438.67 2125.988 2438.67 C 2113.167 2438.67 2102.759 2428.261 2102.759 2415.441 Z " fill-rule="evenodd" fill="rgb(18,66,51)"/><path d=" M 1852.969 2524.778 L 1811.543 2483.352 C 1801.548 2473.357 1801.44 2457.234 1811.304 2447.371 L 1811.304 2447.371 C 1821.167 2437.508 1837.289 2437.615 1847.284 2447.61 L 1874.202 2474.528 L 1900.691 2448.038 C 1910.687 2438.043 1926.809 2437.935 1936.672 2447.798 L 1936.672 2447.798 C 1946.535 2457.662 1946.428 2473.784 1936.433 2483.779 L 1891.991 2528.221 C 1881.996 2538.216 1865.873 2538.324 1856.01 2528.46 L 1856.01 2528.46 C 1854.861 2527.311 1853.848 2526.077 1852.969 2524.778 Z  M 1850.759 2415.441 C 1850.759 2402.62 1861.167 2392.212 1873.988 2392.212 C 1886.808 2392.212 1897.217 2402.62 1897.217 2415.441 C 1897.217 2428.261 1886.808 2438.67 1873.988 2438.67 C 1861.167 2438.67 1850.759 2428.261 1850.759 2415.441 Z " fill-rule="evenodd" fill="rgb(18,66,51)"/><path d=" M 1609.969 2524.778 L 1568.543 2483.352 C 1558.548 2473.357 1558.44 2457.234 1568.304 2447.371 L 1568.304 2447.371 C 1578.167 2437.508 1594.289 2437.615 1604.284 2447.61 L 1631.202 2474.528 L 1657.691 2448.038 C 1667.687 2438.043 1683.809 2437.935 1693.672 2447.798 L 1693.672 2447.798 C 1703.535 2457.662 1703.428 2473.784 1693.433 2483.779 L 1648.991 2528.221 C 1638.996 2538.216 1622.873 2538.324 1613.01 2528.46 L 1613.01 2528.46 C 1611.861 2527.311 1610.848 2526.077 1609.969 2524.778 Z  M 1607.759 2415.441 C 1607.759 2402.62 1618.167 2392.212 1630.988 2392.212 C 1643.808 2392.212 1654.217 2402.62 1654.217 2415.441 C 1654.217 2428.261 1643.808 2438.67 1630.988 2438.67 C 1618.167 2438.67 1607.759 2428.261 1607.759 2415.441 Z " fill-rule="evenodd" fill="rgb(18,66,51)"/><path d=" M 1340.957 2524.778 L 1299.531 2483.352 C 1289.536 2473.357 1289.428 2457.234 1299.292 2447.371 L 1299.292 2447.371 C 1309.155 2437.508 1325.277 2437.615 1335.272 2447.61 L 1362.189 2474.528 L 1388.679 2448.038 C 1398.674 2438.043 1414.797 2437.935 1424.66 2447.798 L 1424.66 2447.798 C 1434.523 2457.662 1434.416 2473.784 1424.421 2483.779 L 1379.979 2528.221 C 1369.984 2538.216 1353.861 2538.324 1343.998 2528.46 L 1343.998 2528.46 C 1342.849 2527.311 1341.835 2526.077 1340.957 2524.778 Z  M 1338.747 2415.441 C 1338.747 2402.62 1349.155 2392.212 1361.976 2392.212 C 1374.796 2392.212 1385.205 2402.62 1385.205 2415.441 C 1385.205 2428.261 1374.796 2438.67 1361.976 2438.67 C 1349.155 2438.67 1338.747 2428.261 1338.747 2415.441 Z " fill-rule="evenodd" fill="rgb(18,66,51)"/><path d=" M 1088.957 2524.778 L 1047.531 2483.352 C 1037.536 2473.357 1037.428 2457.234 1047.292 2447.371 L 1047.292 2447.371 C 1057.155 2437.508 1073.277 2437.615 1083.272 2447.61 L 1110.189 2474.528 L 1136.679 2448.038 C 1146.674 2438.043 1162.797 2437.935 1172.66 2447.798 L 1172.66 2447.798 C 1182.523 2457.662 1182.416 2473.784 1172.421 2483.779 L 1127.979 2528.221 C 1117.984 2538.216 1101.861 2538.324 1091.998 2528.46 L 1091.998 2528.46 C 1090.849 2527.311 1089.835 2526.077 1088.957 2524.778 Z  M 1086.747 2415.441 C 1086.747 2402.62 1097.155 2392.212 1109.976 2392.212 C 1122.796 2392.212 1133.205 2402.62 1133.205 2415.441 C 1133.205 2428.261 1122.796 2438.67 1109.976 2438.67 C 1097.155 2438.67 1086.747 2428.261 1086.747 2415.441 Z " fill-rule="evenodd" fill="rgb(18,66,51)"/><path d=" M 845.957 2524.778 L 804.531 2483.352 C 794.536 2473.357 794.428 2457.234 804.292 2447.371 L 804.292 2447.371 C 814.155 2437.508 830.277 2437.615 840.272 2447.61 L 867.189 2474.528 L 893.679 2448.038 C 903.674 2438.043 919.797 2437.935 929.66 2447.798 L 929.66 2447.798 C 939.523 2457.662 939.416 2473.784 929.421 2483.779 L 884.979 2528.221 C 874.984 2538.216 858.861 2538.324 848.998 2528.46 L 848.998 2528.46 C 847.849 2527.311 846.835 2526.077 845.957 2524.778 Z  M 843.747 2415.441 C 843.747 2402.62 854.155 2392.212 866.976 2392.212 C 879.796 2392.212 890.205 2402.62 890.205 2415.441 C 890.205 2428.261 879.796 2438.67 866.976 2438.67 C 854.155 2438.67 843.747 2428.261 843.747 2415.441 Z " fill-rule="evenodd" fill="rgb(18,66,51)"/></g><g><path d=" M 1850.969 2243.99 L 1809.543 2202.564 C 1799.548 2192.569 1799.44 2176.446 1809.304 2166.583 L 1809.304 2166.583 C 1819.167 2156.72 1835.289 2156.827 1845.284 2166.822 L 1872.202 2193.739 L 1898.691 2167.249 C 1908.687 2157.254 1924.809 2157.147 1934.672 2167.01 L 1934.672 2167.01 C 1944.535 2176.873 1944.428 2192.996 1934.433 2202.991 L 1889.991 2247.433 C 1879.996 2257.428 1863.873 2257.535 1854.01 2247.672 L 1854.01 2247.672 C 1852.861 2246.523 1851.848 2245.289 1850.969 2243.99 Z  M 1848.759 2134.653 C 1848.759 2121.832 1859.167 2111.424 1871.988 2111.424 C 1884.808 2111.424 1895.217 2121.832 1895.217 2134.653 C 1895.217 2147.473 1884.808 2157.882 1871.988 2157.882 C 1859.167 2157.882 1848.759 2147.473 1848.759 2134.653 Z " fill-rule="evenodd" fill="rgb(21,77,60)"/><path d=" M 1598.969 2243.99 L 1557.543 2202.564 C 1547.548 2192.569 1547.44 2176.446 1557.304 2166.583 L 1557.304 2166.583 C 1567.167 2156.72 1583.289 2156.827 1593.284 2166.822 L 1620.202 2193.739 L 1646.691 2167.249 C 1656.687 2157.254 1672.809 2157.147 1682.672 2167.01 L 1682.672 2167.01 C 1692.535 2176.873 1692.428 2192.996 1682.433 2202.991 L 1637.991 2247.433 C 1627.996 2257.428 1611.873 2257.535 1602.01 2247.672 L 1602.01 2247.672 C 1600.861 2246.523 1599.848 2245.289 1598.969 2243.99 Z  M 1596.759 2134.653 C 1596.759 2121.832 1607.167 2111.424 1619.988 2111.424 C 1632.808 2111.424 1643.217 2121.832 1643.217 2134.653 C 1643.217 2147.473 1632.808 2157.882 1619.988 2157.882 C 1607.167 2157.882 1596.759 2147.473 1596.759 2134.653 Z " fill-rule="evenodd" fill="rgb(21,77,60)"/><path d=" M 1355.969 2243.99 L 1314.543 2202.564 C 1304.548 2192.569 1304.44 2176.446 1314.304 2166.583 L 1314.304 2166.583 C 1324.167 2156.72 1340.289 2156.827 1350.284 2166.822 L 1377.202 2193.739 L 1403.691 2167.249 C 1413.687 2157.254 1429.809 2157.147 1439.672 2167.01 L 1439.672 2167.01 C 1449.535 2176.873 1449.428 2192.996 1439.433 2202.991 L 1394.991 2247.433 C 1384.996 2257.428 1368.873 2257.535 1359.01 2247.672 L 1359.01 2247.672 C 1357.861 2246.523 1356.848 2245.289 1355.969 2243.99 Z  M 1353.759 2134.653 C 1353.759 2121.832 1364.167 2111.424 1376.988 2111.424 C 1389.808 2111.424 1400.217 2121.832 1400.217 2134.653 C 1400.217 2147.473 1389.808 2157.882 1376.988 2157.882 C 1364.167 2157.882 1353.759 2147.473 1353.759 2134.653 Z " fill-rule="evenodd" fill="rgb(18,66,51)"/><path d=" M 1086.957 2243.99 L 1045.531 2202.564 C 1035.536 2192.569 1035.428 2176.446 1045.292 2166.583 L 1045.292 2166.583 C 1055.155 2156.72 1071.277 2156.827 1081.272 2166.822 L 1108.189 2193.739 L 1134.679 2167.249 C 1144.674 2157.254 1160.797 2157.147 1170.66 2167.01 L 1170.66 2167.01 C 1180.523 2176.873 1180.416 2192.996 1170.421 2202.991 L 1125.979 2247.433 C 1115.984 2257.428 1099.861 2257.535 1089.998 2247.672 L 1089.998 2247.672 C 1088.849 2246.523 1087.835 2245.289 1086.957 2243.99 Z  M 1084.747 2134.653 C 1084.747 2121.832 1095.155 2111.424 1107.976 2111.424 C 1120.796 2111.424 1131.205 2121.832 1131.205 2134.653 C 1131.205 2147.473 1120.796 2157.882 1107.976 2157.882 C 1095.155 2157.882 1084.747 2147.473 1084.747 2134.653 Z " fill-rule="evenodd" fill="rgb(18,66,51)"/><path d=" M 834.957 2243.99 L 793.531 2202.564 C 783.536 2192.569 783.428 2176.446 793.292 2166.583 L 793.292 2166.583 C 803.155 2156.72 819.277 2156.827 829.272 2166.822 L 856.189 2193.739 L 882.679 2167.249 C 892.674 2157.254 908.797 2157.147 918.66 2167.01 L 918.66 2167.01 C 928.523 2176.873 928.416 2192.996 918.421 2202.991 L 873.979 2247.433 C 863.984 2257.428 847.861 2257.535 837.998 2247.672 L 837.998 2247.672 C 836.849 2246.523 835.835 2245.289 834.957 2243.99 Z  M 832.747 2134.653 C 832.747 2121.832 843.155 2111.424 855.976 2111.424 C 868.796 2111.424 879.205 2121.832 879.205 2134.653 C 879.205 2147.473 868.796 2157.882 855.976 2157.882 C 843.155 2157.882 832.747 2147.473 832.747 2134.653 Z " fill-rule="evenodd" fill="rgb(18,66,51)"/><path d=" M 591.957 2243.99 L 550.531 2202.564 C 540.536 2192.569 540.428 2176.446 550.292 2166.583 L 550.292 2166.583 C 560.155 2156.72 576.277 2156.827 586.272 2166.822 L 613.189 2193.739 L 639.679 2167.249 C 649.674 2157.254 665.797 2157.147 675.66 2167.01 L 675.66 2167.01 C 685.523 2176.873 685.416 2192.996 675.421 2202.991 L 630.979 2247.433 C 620.984 2257.428 604.861 2257.535 594.998 2247.672 L 594.998 2247.672 C 593.849 2246.523 592.835 2245.289 591.957 2243.99 Z  M 589.747 2134.653 C 589.747 2121.832 600.155 2111.424 612.976 2111.424 C 625.796 2111.424 636.205 2121.832 636.205 2134.653 C 636.205 2147.473 625.796 2157.882 612.976 2157.882 C 600.155 2157.882 589.747 2147.473 589.747 2134.653 Z " fill-rule="evenodd" fill="rgb(18,66,51)"/></g><g><path d=" M 2103.969 423.778 L 2062.543 382.352 C 2052.548 372.357 2052.44 356.234 2062.304 346.371 L 2062.304 346.371 C 2072.167 336.508 2088.289 336.615 2098.284 346.61 L 2125.202 373.528 L 2151.691 347.038 C 2161.687 337.043 2177.809 336.935 2187.672 346.798 L 2187.672 346.798 C 2197.535 356.662 2197.428 372.784 2187.433 382.779 L 2142.991 427.221 C 2132.996 437.216 2116.873 437.324 2107.01 427.46 L 2107.01 427.46 C 2105.861 426.311 2104.848 425.077 2103.969 423.778 Z  M 2101.759 314.441 C 2101.759 301.62 2112.167 291.212 2124.988 291.212 C 2137.808 291.212 2148.217 301.62 2148.217 314.441 C 2148.217 327.261 2137.808 337.67 2124.988 337.67 C 2112.167 337.67 2101.759 327.261 2101.759 314.441 Z " fill-rule="evenodd" fill="rgb(21,77,60)"/><path d=" M 1851.969 423.778 L 1810.543 382.352 C 1800.548 372.357 1800.44 356.234 1810.304 346.371 L 1810.304 346.371 C 1820.167 336.508 1836.289 336.615 1846.284 346.61 L 1873.202 373.528 L 1899.691 347.038 C 1909.687 337.043 1925.809 336.935 1935.672 346.798 L 1935.672 346.798 C 1945.535 356.662 1945.428 372.784 1935.433 382.779 L 1890.991 427.221 C 1880.996 437.216 1864.873 437.324 1855.01 427.46 L 1855.01 427.46 C 1853.861 426.311 1852.848 425.077 1851.969 423.778 Z  M 1849.759 314.441 C 1849.759 301.62 1860.167 291.212 1872.988 291.212 C 1885.808 291.212 1896.217 301.62 1896.217 314.441 C 1896.217 327.261 1885.808 337.67 1872.988 337.67 C 1860.167 337.67 1849.759 327.261 1849.759 314.441 Z " fill-rule="evenodd" fill="rgb(21,77,60)"/><path d=" M 1608.969 423.778 L 1567.543 382.352 C 1557.548 372.357 1557.44 356.234 1567.304 346.371 L 1567.304 346.371 C 1577.167 336.508 1593.289 336.615 1603.284 346.61 L 1630.202 373.528 L 1656.691 347.038 C 1666.687 337.043 1682.809 336.935 1692.672 346.798 L 1692.672 346.798 C 1702.535 356.662 1702.428 372.784 1692.433 382.779 L 1647.991 427.221 C 1637.996 437.216 1621.873 437.324 1612.01 427.46 L 1612.01 427.46 C 1610.861 426.311 1609.848 425.077 1608.969 423.778 Z  M 1606.759 314.441 C 1606.759 301.62 1617.167 291.212 1629.988 291.212 C 1642.808 291.212 1653.217 301.62 1653.217 314.441 C 1653.217 327.261 1642.808 337.67 1629.988 337.67 C 1617.167 337.67 1606.759 327.261 1606.759 314.441 Z " fill-rule="evenodd" fill="rgb(21,77,60)"/><path d=" M 1339.957 423.778 L 1298.531 382.352 C 1288.536 372.357 1288.428 356.234 1298.292 346.371 L 1298.292 346.371 C 1308.155 336.508 1324.277 336.615 1334.272 346.61 L 1361.189 373.528 L 1387.679 347.038 C 1397.674 337.043 1413.797 336.935 1423.66 346.798 L 1423.66 346.798 C 1433.523 356.662 1433.416 372.784 1423.421 382.779 L 1378.979 427.221 C 1368.984 437.216 1352.861 437.324 1342.998 427.46 L 1342.998 427.46 C 1341.849 426.311 1340.835 425.077 1339.957 423.778 Z  M 1337.747 314.441 C 1337.747 301.62 1348.155 291.212 1360.976 291.212 C 1373.796 291.212 1384.205 301.62 1384.205 314.441 C 1384.205 327.261 1373.796 337.67 1360.976 337.67 C 1348.155 337.67 1337.747 327.261 1337.747 314.441 Z " fill-rule="evenodd" fill="rgb(18,66,51)"/><path d=" M 1087.957 423.778 L 1046.531 382.352 C 1036.536 372.357 1036.428 356.234 1046.292 346.371 L 1046.292 346.371 C 1056.155 336.508 1072.277 336.615 1082.272 346.61 L 1109.189 373.528 L 1135.679 347.038 C 1145.674 337.043 1161.797 336.935 1171.66 346.798 L 1171.66 346.798 C 1181.523 356.662 1181.416 372.784 1171.421 382.779 L 1126.979 427.221 C 1116.984 437.216 1100.861 437.324 1090.998 427.46 L 1090.998 427.46 C 1089.849 426.311 1088.835 425.077 1087.957 423.778 Z  M 1085.747 314.441 C 1085.747 301.62 1096.155 291.212 1108.976 291.212 C 1121.796 291.212 1132.205 301.62 1132.205 314.441 C 1132.205 327.261 1121.796 337.67 1108.976 337.67 C 1096.155 337.67 1085.747 327.261 1085.747 314.441 Z " fill-rule="evenodd" fill="rgb(18,66,51)"/><path d=" M 844.957 423.778 L 803.531 382.352 C 793.536 372.357 793.428 356.234 803.292 346.371 L 803.292 346.371 C 813.155 336.508 829.277 336.615 839.272 346.61 L 866.189 373.528 L 892.679 347.038 C 902.674 337.043 918.797 336.935 928.66 346.798 L 928.66 346.798 C 938.523 356.662 938.416 372.784 928.421 382.779 L 883.979 427.221 C 873.984 437.216 857.861 437.324 847.998 427.46 L 847.998 427.46 C 846.849 426.311 845.835 425.077 844.957 423.778 Z  M 842.747 314.441 C 842.747 301.62 853.155 291.212 865.976 291.212 C 878.796 291.212 889.205 301.62 889.205 314.441 C 889.205 327.261 878.796 337.67 865.976 337.67 C 853.155 337.67 842.747 327.261 842.747 314.441 Z " fill-rule="evenodd" fill="rgb(18,66,51)"/></g><rect x="0" y="0" width="1497" height="3000" transform="matrix(1,0,0,1,0,0)" fill="rgb(58,59,59)"/><rect x="1168" y="-205" width="329" height="3355" transform="matrix(1,0,0,1,0,0)" fill="rgb(48,49,49)"/><rect x="507" y="-254" width="329" height="3355" transform="matrix(1,0,0,1,0,0)" fill="rgb(48,49,49)"/><rect x="-152" y="-254" width="329" height="3355" transform="matrix(1,0,0,1,0,0)" fill="rgb(48,49,49)"/><g><path d=" M 1311.481 248.778 L 1270.055 207.352 C 1260.06 197.357 1259.953 181.234 1269.816 171.371 L 1269.816 171.371 C 1279.679 161.508 1295.801 161.615 1305.796 171.61 L 1332.714 198.528 L 1359.204 172.038 C 1369.199 162.043 1385.321 161.935 1395.184 171.798 L 1395.184 171.798 C 1405.047 181.662 1404.94 197.784 1394.945 207.779 L 1350.503 252.221 C 1340.508 262.216 1324.386 262.324 1314.522 252.46 L 1314.522 252.46 C 1313.373 251.311 1312.36 250.077 1311.481 248.778 Z  M 1309.271 139.441 C 1309.271 126.62 1319.679 116.212 1332.5 116.212 C 1345.321 116.212 1355.729 126.62 1355.729 139.441 C 1355.729 152.261 1345.321 162.67 1332.5 162.67 C 1319.679 162.67 1309.271 152.261 1309.271 139.441 Z " fill-rule="evenodd" fill="rgb(58,59,59)"/><path d=" M 1311.481 486.778 L 1270.055 445.352 C 1260.06 435.357 1259.953 419.234 1269.816 409.371 L 1269.816 409.371 C 1279.679 399.508 1295.801 399.615 1305.796 409.61 L 1332.714 436.528 L 1359.204 410.038 C 1369.199 400.043 1385.321 399.935 1395.184 409.798 L 1395.184 409.798 C 1405.047 419.662 1404.94 435.784 1394.945 445.779 L 1350.503 490.221 C 1340.508 500.216 1324.386 500.324 1314.522 490.46 L 1314.522 490.46 C 1313.373 489.311 1312.36 488.077 1311.481 486.778 Z  M 1309.271 377.441 C 1309.271 364.62 1319.679 354.212 1332.5 354.212 C 1345.321 354.212 1355.729 364.62 1355.729 377.441 C 1355.729 390.261 1345.321 400.67 1332.5 400.67 C 1319.679 400.67 1309.271 390.261 1309.271 377.441 Z " fill-rule="evenodd" fill="rgb(58,59,59)"/><path d=" M 1311.481 486.778 L 1270.055 445.352 C 1260.06 435.357 1259.953 419.234 1269.816 409.371 L 1269.816 409.371 C 1279.679 399.508 1295.801 399.615 1305.796 409.61 L 1332.714 436.528 L 1359.204 410.038 C 1369.199 400.043 1385.321 399.935 1395.184 409.798 L 1395.184 409.798 C 1405.047 419.662 1404.94 435.784 1394.945 445.779 L 1350.503 490.221 C 1340.508 500.216 1324.386 500.324 1314.522 490.46 L 1314.522 490.46 C 1313.373 489.311 1312.36 488.077 1311.481 486.778 Z  M 1309.271 377.441 C 1309.271 364.62 1319.679 354.212 1332.5 354.212 C 1345.321 354.212 1355.729 364.62 1355.729 377.441 C 1355.729 390.261 1345.321 400.67 1332.5 400.67 C 1319.679 400.67 1309.271 390.261 1309.271 377.441 Z " fill-rule="evenodd" fill="rgb(58,59,59)"/><path d=" M 1311.481 718.99 L 1270.055 677.564 C 1260.06 667.569 1259.953 651.446 1269.816 641.583 L 1269.816 641.583 C 1279.679 631.72 1295.801 631.827 1305.796 641.822 L 1332.714 668.739 L 1359.204 642.249 C 1369.199 632.254 1385.321 632.147 1395.184 642.01 L 1395.184 642.01 C 1405.047 651.873 1404.94 667.996 1394.945 677.991 L 1350.503 722.433 C 1340.508 732.428 1324.386 732.535 1314.522 722.672 L 1314.522 722.672 C 1313.373 721.523 1312.36 720.289 1311.481 718.99 Z  M 1309.271 609.653 C 1309.271 596.832 1319.679 586.424 1332.5 586.424 C 1345.321 586.424 1355.729 596.832 1355.729 609.653 C 1355.729 622.473 1345.321 632.882 1332.5 632.882 C 1319.679 632.882 1309.271 622.473 1309.271 609.653 Z " fill-rule="evenodd" fill="rgb(58,59,59)"/></g><g><path d=" M 650.481 -15.328 L 609.055 -56.754 C 599.06 -66.749 598.953 -82.872 608.816 -92.735 L 608.816 -92.735 C 618.679 -102.598 634.801 -102.491 644.796 -92.495 L 671.714 -65.578 L 698.204 -92.068 C 708.199 -102.063 724.321 -102.171 734.184 -92.307 L 734.184 -92.307 C 744.047 -82.444 743.94 -66.322 733.945 -56.327 L 689.503 -11.885 C 679.508 -1.89 663.386 -1.782 653.522 -11.645 L 653.522 -11.645 C 652.373 -12.795 651.36 -14.028 650.481 -15.328 Z  M 648.271 -124.665 C 648.271 -137.485 658.679 -147.894 671.5 -147.894 C 684.321 -147.894 694.729 -137.485 694.729 -124.665 C 694.729 -111.844 684.321 -101.436 671.5 -101.436 C 658.679 -101.436 648.271 -111.844 648.271 -124.665 Z " fill-rule="evenodd" fill="rgb(58,59,59)"/><path d=" M 650.481 222.672 L 609.055 181.246 C 599.06 171.251 598.953 155.128 608.816 145.265 L 608.816 145.265 C 618.679 135.402 634.801 135.509 644.796 145.505 L 671.714 172.422 L 698.204 145.932 C 708.199 135.937 724.321 135.829 734.184 145.693 L 734.184 145.693 C 744.047 155.556 743.94 171.678 733.945 181.673 L 689.503 226.115 C 679.508 236.11 663.386 236.218 653.522 226.355 L 653.522 226.355 C 652.373 225.205 651.36 223.972 650.481 222.672 Z  M 648.271 113.335 C 648.271 100.515 658.679 90.106 671.5 90.106 C 684.321 90.106 694.729 100.515 694.729 113.335 C 694.729 126.156 684.321 136.564 671.5 136.564 C 658.679 136.564 648.271 126.156 648.271 113.335 Z " fill-rule="evenodd" fill="rgb(58,59,59)"/><path d=" M 650.481 222.672 L 609.055 181.246 C 599.06 171.251 598.953 155.128 608.816 145.265 L 608.816 145.265 C 618.679 135.402 634.801 135.509 644.796 145.505 L 671.714 172.422 L 698.204 145.932 C 708.199 135.937 724.321 135.829 734.184 145.693 L 734.184 145.693 C 744.047 155.556 743.94 171.678 733.945 181.673 L 689.503 226.115 C 679.508 236.11 663.386 236.218 653.522 226.355 L 653.522 226.355 C 652.373 225.205 651.36 223.972 650.481 222.672 Z  M 648.271 113.335 C 648.271 100.515 658.679 90.106 671.5 90.106 C 684.321 90.106 694.729 100.515 694.729 113.335 C 694.729 126.156 684.321 136.564 671.5 136.564 C 658.679 136.564 648.271 126.156 648.271 113.335 Z " fill-rule="evenodd" fill="rgb(58,59,59)"/><path d=" M 650.481 454.884 L 609.055 413.458 C 599.06 403.463 598.953 387.34 608.816 377.477 L 608.816 377.477 C 618.679 367.614 634.801 367.721 644.796 377.716 L 671.714 404.633 L 698.204 378.144 C 708.199 368.148 724.321 368.041 734.184 377.904 L 734.184 377.904 C 744.047 387.768 743.94 403.89 733.945 413.885 L 689.503 458.327 C 679.508 468.322 663.386 468.429 653.522 458.566 L 653.522 458.566 C 652.373 457.417 651.36 456.183 650.481 454.884 Z  M 648.271 345.547 C 648.271 332.726 658.679 322.318 671.5 322.318 C 684.321 322.318 694.729 332.726 694.729 345.547 C 694.729 358.367 684.321 368.776 671.5 368.776 C 658.679 368.776 648.271 358.367 648.271 345.547 Z " fill-rule="evenodd" fill="rgb(58,59,59)"/></g><g><path d=" M 1311.481 955.672 L 1270.055 914.246 C 1260.06 904.251 1259.953 888.128 1269.816 878.265 L 1269.816 878.265 C 1279.679 868.402 1295.801 868.509 1305.796 878.505 L 1332.714 905.422 L 1359.204 878.932 C 1369.199 868.937 1385.321 868.829 1395.184 878.693 L 1395.184 878.693 C 1405.047 888.556 1404.94 904.678 1394.945 914.673 L 1350.503 959.115 C 1340.508 969.11 1324.386 969.218 1314.522 959.355 L 1314.522 959.355 C 1313.373 958.205 1312.36 956.972 1311.481 955.672 Z  M 1309.271 846.335 C 1309.271 833.515 1319.679 823.106 1332.5 823.106 C 1345.321 823.106 1355.729 833.515 1355.729 846.335 C 1355.729 859.156 1345.321 869.564 1332.5 869.564 C 1319.679 869.564 1309.271 859.156 1309.271 846.335 Z " fill-rule="evenodd" fill="rgb(58,59,59)"/><path d=" M 1311.481 1193.672 L 1270.055 1152.246 C 1260.06 1142.251 1259.953 1126.128 1269.816 1116.265 L 1269.816 1116.265 C 1279.679 1106.402 1295.801 1106.509 1305.796 1116.505 L 1332.714 1143.422 L 1359.204 1116.932 C 1369.199 1106.937 1385.321 1106.829 1395.184 1116.693 L 1395.184 1116.693 C 1405.047 1126.556 1404.94 1142.678 1394.945 1152.673 L 1350.503 1197.115 C 1340.508 1207.11 1324.386 1207.218 1314.522 1197.355 L 1314.522 1197.355 C 1313.373 1196.205 1312.36 1194.972 1311.481 1193.672 Z  M 1309.271 1084.335 C 1309.271 1071.515 1319.679 1061.106 1332.5 1061.106 C 1345.321 1061.106 1355.729 1071.515 1355.729 1084.335 C 1355.729 1097.156 1345.321 1107.564 1332.5 1107.564 C 1319.679 1107.564 1309.271 1097.156 1309.271 1084.335 Z " fill-rule="evenodd" fill="rgb(58,59,59)"/><path d=" M 1311.481 1193.672 L 1270.055 1152.246 C 1260.06 1142.251 1259.953 1126.128 1269.816 1116.265 L 1269.816 1116.265 C 1279.679 1106.402 1295.801 1106.509 1305.796 1116.505 L 1332.714 1143.422 L 1359.204 1116.932 C 1369.199 1106.937 1385.321 1106.829 1395.184 1116.693 L 1395.184 1116.693 C 1405.047 1126.556 1404.94 1142.678 1394.945 1152.673 L 1350.503 1197.115 C 1340.508 1207.11 1324.386 1207.218 1314.522 1197.355 L 1314.522 1197.355 C 1313.373 1196.205 1312.36 1194.972 1311.481 1193.672 Z  M 1309.271 1084.335 C 1309.271 1071.515 1319.679 1061.106 1332.5 1061.106 C 1345.321 1061.106 1355.729 1071.515 1355.729 1084.335 C 1355.729 1097.156 1345.321 1107.564 1332.5 1107.564 C 1319.679 1107.564 1309.271 1097.156 1309.271 1084.335 Z " fill-rule="evenodd" fill="rgb(58,59,59)"/><path d=" M 1311.481 1425.884 L 1270.055 1384.458 C 1260.06 1374.463 1259.953 1358.34 1269.816 1348.477 L 1269.816 1348.477 C 1279.679 1338.614 1295.801 1338.721 1305.796 1348.716 L 1332.714 1375.633 L 1359.204 1349.144 C 1369.199 1339.148 1385.321 1339.041 1395.184 1348.904 L 1395.184 1348.904 C 1405.047 1358.768 1404.94 1374.89 1394.945 1384.885 L 1350.503 1429.327 C 1340.508 1439.322 1324.386 1439.429 1314.522 1429.566 L 1314.522 1429.566 C 1313.373 1428.417 1312.36 1427.183 1311.481 1425.884 Z  M 1309.271 1316.547 C 1309.271 1303.726 1319.679 1293.318 1332.5 1293.318 C 1345.321 1293.318 1355.729 1303.726 1355.729 1316.547 C 1355.729 1329.367 1345.321 1339.776 1332.5 1339.776 C 1319.679 1339.776 1309.271 1329.367 1309.271 1316.547 Z " fill-rule="evenodd" fill="rgb(58,59,59)"/></g><g><path d=" M 1311.481 2685.672 L 1270.055 2644.246 C 1260.06 2634.251 1259.953 2618.128 1269.816 2608.265 L 1269.816 2608.265 C 1279.679 2598.402 1295.801 2598.509 1305.796 2608.505 L 1332.714 2635.422 L 1359.204 2608.932 C 1369.199 2598.937 1385.321 2598.829 1395.184 2608.693 L 1395.184 2608.693 C 1405.047 2618.556 1404.94 2634.678 1394.945 2644.673 L 1350.503 2689.115 C 1340.508 2699.11 1324.386 2699.218 1314.522 2689.355 L 1314.522 2689.355 C 1313.373 2688.205 1312.36 2686.972 1311.481 2685.672 Z  M 1309.271 2576.335 C 1309.271 2563.515 1319.679 2553.106 1332.5 2553.106 C 1345.321 2553.106 1355.729 2563.515 1355.729 2576.335 C 1355.729 2589.156 1345.321 2599.564 1332.5 2599.564 C 1319.679 2599.564 1309.271 2589.156 1309.271 2576.335 Z " fill-rule="evenodd" fill="rgb(58,59,59)"/><path d=" M 1311.481 2923.672 L 1270.055 2882.246 C 1260.06 2872.251 1259.953 2856.128 1269.816 2846.265 L 1269.816 2846.265 C 1279.679 2836.402 1295.801 2836.509 1305.796 2846.505 L 1332.714 2873.422 L 1359.204 2846.932 C 1369.199 2836.937 1385.321 2836.829 1395.184 2846.693 L 1395.184 2846.693 C 1405.047 2856.556 1404.94 2872.678 1394.945 2882.673 L 1350.503 2927.115 C 1340.508 2937.11 1324.386 2937.218 1314.522 2927.355 L 1314.522 2927.355 C 1313.373 2926.205 1312.36 2924.972 1311.481 2923.672 Z  M 1309.271 2814.335 C 1309.271 2801.515 1319.679 2791.106 1332.5 2791.106 C 1345.321 2791.106 1355.729 2801.515 1355.729 2814.335 C 1355.729 2827.156 1345.321 2837.564 1332.5 2837.564 C 1319.679 2837.564 1309.271 2827.156 1309.271 2814.335 Z " fill-rule="evenodd" fill="rgb(58,59,59)"/><path d=" M 1311.481 2923.672 L 1270.055 2882.246 C 1260.06 2872.251 1259.953 2856.128 1269.816 2846.265 L 1269.816 2846.265 C 1279.679 2836.402 1295.801 2836.509 1305.796 2846.505 L 1332.714 2873.422 L 1359.204 2846.932 C 1369.199 2836.937 1385.321 2836.829 1395.184 2846.693 L 1395.184 2846.693 C 1405.047 2856.556 1404.94 2872.678 1394.945 2882.673 L 1350.503 2927.115 C 1340.508 2937.11 1324.386 2937.218 1314.522 2927.355 L 1314.522 2927.355 C 1313.373 2926.205 1312.36 2924.972 1311.481 2923.672 Z  M 1309.271 2814.335 C 1309.271 2801.515 1319.679 2791.106 1332.5 2791.106 C 1345.321 2791.106 1355.729 2801.515 1355.729 2814.335 C 1355.729 2827.156 1345.321 2837.564 1332.5 2837.564 C 1319.679 2837.564 1309.271 2827.156 1309.271 2814.335 Z " fill-rule="evenodd" fill="rgb(58,59,59)"/><path d=" M 1311.481 3155.884 L 1270.055 3114.458 C 1260.06 3104.463 1259.953 3088.34 1269.816 3078.477 L 1269.816 3078.477 C 1279.679 3068.614 1295.801 3068.721 1305.796 3078.716 L 1332.714 3105.633 L 1359.204 3079.144 C 1369.199 3069.148 1385.321 3069.041 1395.184 3078.904 L 1395.184 3078.904 C 1405.047 3088.768 1404.94 3104.89 1394.945 3114.885 L 1350.503 3159.327 C 1340.508 3169.322 1324.386 3169.429 1314.522 3159.566 L 1314.522 3159.566 C 1313.373 3158.417 1312.36 3157.183 1311.481 3155.884 Z  M 1309.271 3046.547 C 1309.271 3033.726 1319.679 3023.318 1332.5 3023.318 C 1345.321 3023.318 1355.729 3033.726 1355.729 3046.547 C 1355.729 3059.367 1345.321 3069.776 1332.5 3069.776 C 1319.679 3069.776 1309.271 3059.367 1309.271 3046.547 Z " fill-rule="evenodd" fill="rgb(58,59,59)"/></g><g><path d=" M 656.993 2685.672 L 615.567 2644.246 C 605.572 2634.251 605.465 2618.128 615.328 2608.265 L 615.328 2608.265 C 625.191 2598.402 641.313 2598.509 651.309 2608.505 L 678.226 2635.422 L 704.716 2608.932 C 714.711 2598.937 730.833 2598.829 740.696 2608.693 L 740.696 2608.693 C 750.56 2618.556 750.452 2634.678 740.457 2644.673 L 696.015 2689.115 C 686.02 2699.11 669.898 2699.218 660.034 2689.355 L 660.034 2689.355 C 658.885 2688.205 657.872 2686.972 656.993 2685.672 Z  M 654.783 2576.335 C 654.783 2563.515 665.192 2553.106 678.012 2553.106 C 690.833 2553.106 701.241 2563.515 701.241 2576.335 C 701.241 2589.156 690.833 2599.564 678.012 2599.564 C 665.192 2599.564 654.783 2589.156 654.783 2576.335 Z " fill-rule="evenodd" fill="rgb(58,59,59)"/><path d=" M 656.993 2923.672 L 615.567 2882.246 C 605.572 2872.251 605.465 2856.128 615.328 2846.265 L 615.328 2846.265 C 625.191 2836.402 641.313 2836.509 651.309 2846.505 L 678.226 2873.422 L 704.716 2846.932 C 714.711 2836.937 730.833 2836.829 740.696 2846.693 L 740.696 2846.693 C 750.56 2856.556 750.452 2872.678 740.457 2882.673 L 696.015 2927.115 C 686.02 2937.11 669.898 2937.218 660.034 2927.355 L 660.034 2927.355 C 658.885 2926.205 657.872 2924.972 656.993 2923.672 Z  M 654.783 2814.335 C 654.783 2801.515 665.192 2791.106 678.012 2791.106 C 690.833 2791.106 701.241 2801.515 701.241 2814.335 C 701.241 2827.156 690.833 2837.564 678.012 2837.564 C 665.192 2837.564 654.783 2827.156 654.783 2814.335 Z " fill-rule="evenodd" fill="rgb(58,59,59)"/><path d=" M 656.993 2923.672 L 615.567 2882.246 C 605.572 2872.251 605.465 2856.128 615.328 2846.265 L 615.328 2846.265 C 625.191 2836.402 641.313 2836.509 651.309 2846.505 L 678.226 2873.422 L 704.716 2846.932 C 714.711 2836.937 730.833 2836.829 740.696 2846.693 L 740.696 2846.693 C 750.56 2856.556 750.452 2872.678 740.457 2882.673 L 696.015 2927.115 C 686.02 2937.11 669.898 2937.218 660.034 2927.355 L 660.034 2927.355 C 658.885 2926.205 657.872 2924.972 656.993 2923.672 Z  M 654.783 2814.335 C 654.783 2801.515 665.192 2791.106 678.012 2791.106 C 690.833 2791.106 701.241 2801.515 701.241 2814.335 C 701.241 2827.156 690.833 2837.564 678.012 2837.564 C 665.192 2837.564 654.783 2827.156 654.783 2814.335 Z " fill-rule="evenodd" fill="rgb(58,59,59)"/><path d=" M 656.993 3155.884 L 615.567 3114.458 C 605.572 3104.463 605.465 3088.34 615.328 3078.477 L 615.328 3078.477 C 625.191 3068.614 641.313 3068.721 651.309 3078.716 L 678.226 3105.633 L 704.716 3079.144 C 714.711 3069.148 730.833 3069.041 740.696 3078.904 L 740.696 3078.904 C 750.56 3088.768 750.452 3104.89 740.457 3114.885 L 696.015 3159.327 C 686.02 3169.322 669.898 3169.429 660.034 3159.566 L 660.034 3159.566 C 658.885 3158.417 657.872 3157.183 656.993 3155.884 Z  M 654.783 3046.547 C 654.783 3033.726 665.192 3023.318 678.012 3023.318 C 690.833 3023.318 701.241 3033.726 701.241 3046.547 C 701.241 3059.367 690.833 3069.776 678.012 3069.776 C 665.192 3069.776 654.783 3059.367 654.783 3046.547 Z " fill-rule="evenodd" fill="rgb(58,59,59)"/></g><g><path d=" M 980.993 248.778 L 939.567 207.352 C 929.572 197.357 929.465 181.234 939.328 171.371 L 939.328 171.371 C 949.191 161.508 965.313 161.615 975.309 171.61 L 1002.226 198.528 L 1028.716 172.038 C 1038.711 162.043 1054.833 161.935 1064.696 171.798 L 1064.696 171.798 C 1074.56 181.662 1074.452 197.784 1064.457 207.779 L 1020.015 252.221 C 1010.02 262.216 993.898 262.324 984.034 252.46 L 984.034 252.46 C 982.885 251.311 981.872 250.077 980.993 248.778 Z  M 978.783 139.441 C 978.783 126.62 989.192 116.212 1002.012 116.212 C 1014.833 116.212 1025.241 126.62 1025.241 139.441 C 1025.241 152.261 1014.833 162.67 1002.012 162.67 C 989.192 162.67 978.783 152.261 978.783 139.441 Z " fill-rule="evenodd" fill="rgb(48,49,49)"/><path d=" M 980.993 486.778 L 939.567 445.352 C 929.572 435.357 929.465 419.234 939.328 409.371 L 939.328 409.371 C 949.191 399.508 965.313 399.615 975.309 409.61 L 1002.226 436.528 L 1028.716 410.038 C 1038.711 400.043 1054.833 399.935 1064.696 409.798 L 1064.696 409.798 C 1074.56 419.662 1074.452 435.784 1064.457 445.779 L 1020.015 490.221 C 1010.02 500.216 993.898 500.324 984.034 490.46 L 984.034 490.46 C 982.885 489.311 981.872 488.077 980.993 486.778 Z  M 978.783 377.441 C 978.783 364.62 989.192 354.212 1002.012 354.212 C 1014.833 354.212 1025.241 364.62 1025.241 377.441 C 1025.241 390.261 1014.833 400.67 1002.012 400.67 C 989.192 400.67 978.783 390.261 978.783 377.441 Z " fill-rule="evenodd" fill="rgb(58,59,59)"/><path d=" M 980.993 486.778 L 939.567 445.352 C 929.572 435.357 929.465 419.234 939.328 409.371 L 939.328 409.371 C 949.191 399.508 965.313 399.615 975.309 409.61 L 1002.226 436.528 L 1028.716 410.038 C 1038.711 400.043 1054.833 399.935 1064.696 409.798 L 1064.696 409.798 C 1074.56 419.662 1074.452 435.784 1064.457 445.779 L 1020.015 490.221 C 1010.02 500.216 993.898 500.324 984.034 490.46 L 984.034 490.46 C 982.885 489.311 981.872 488.077 980.993 486.778 Z  M 978.783 377.441 C 978.783 364.62 989.192 354.212 1002.012 354.212 C 1014.833 354.212 1025.241 364.62 1025.241 377.441 C 1025.241 390.261 1014.833 400.67 1002.012 400.67 C 989.192 400.67 978.783 390.261 978.783 377.441 Z " fill-rule="evenodd" fill="rgb(48,49,49)"/><path d=" M 980.993 718.99 L 939.567 677.564 C 929.572 667.569 929.465 651.446 939.328 641.583 L 939.328 641.583 C 949.191 631.72 965.313 631.827 975.309 641.822 L 1002.226 668.739 L 1028.716 642.249 C 1038.711 632.254 1054.833 632.147 1064.696 642.01 L 1064.696 642.01 C 1074.56 651.873 1074.452 667.996 1064.457 677.991 L 1020.015 722.433 C 1010.02 732.428 993.898 732.535 984.034 722.672 L 984.034 722.672 C 982.885 721.523 981.872 720.289 980.993 718.99 Z  M 978.783 609.653 C 978.783 596.832 989.192 586.424 1002.012 586.424 C 1014.833 586.424 1025.241 596.832 1025.241 609.653 C 1025.241 622.473 1014.833 632.882 1002.012 632.882 C 989.192 632.882 978.783 622.473 978.783 609.653 Z " fill-rule="evenodd" fill="rgb(48,49,49)"/></g><g><path d=" M 980.993 2444.566 L 939.567 2403.14 C 929.572 2393.145 929.465 2377.023 939.328 2367.159 L 939.328 2367.159 C 949.191 2357.296 965.313 2357.403 975.309 2367.399 L 1002.226 2394.316 L 1028.716 2367.826 C 1038.711 2357.831 1054.833 2357.724 1064.696 2367.587 L 1064.696 2367.587 C 1074.56 2377.45 1074.452 2393.572 1064.457 2403.567 L 1020.015 2448.009 C 1010.02 2458.005 993.898 2458.112 984.034 2448.249 L 984.034 2448.249 C 982.885 2447.1 981.872 2445.866 980.993 2444.566 Z  M 978.783 2335.229 C 978.783 2322.409 989.192 2312 1002.012 2312 C 1014.833 2312 1025.241 2322.409 1025.241 2335.229 C 1025.241 2348.05 1014.833 2358.458 1002.012 2358.458 C 989.192 2358.458 978.783 2348.05 978.783 2335.229 Z " fill-rule="evenodd" fill="rgb(48,49,49)"/><path d=" M 980.993 2682.566 L 939.567 2641.14 C 929.572 2631.145 929.465 2615.023 939.328 2605.159 L 939.328 2605.159 C 949.191 2595.296 965.313 2595.403 975.309 2605.399 L 1002.226 2632.316 L 1028.716 2605.826 C 1038.711 2595.831 1054.833 2595.724 1064.696 2605.587 L 1064.696 2605.587 C 1074.56 2615.45 1074.452 2631.572 1064.457 2641.567 L 1020.015 2686.009 C 1010.02 2696.005 993.898 2696.112 984.034 2686.249 L 984.034 2686.249 C 982.885 2685.1 981.872 2683.866 980.993 2682.566 Z  M 978.783 2573.229 C 978.783 2560.409 989.192 2550 1002.012 2550 C 1014.833 2550 1025.241 2560.409 1025.241 2573.229 C 1025.241 2586.05 1014.833 2596.458 1002.012 2596.458 C 989.192 2596.458 978.783 2586.05 978.783 2573.229 Z " fill-rule="evenodd" fill="rgb(58,59,59)"/><path d=" M 980.993 2682.566 L 939.567 2641.14 C 929.572 2631.145 929.465 2615.023 939.328 2605.159 L 939.328 2605.159 C 949.191 2595.296 965.313 2595.403 975.309 2605.399 L 1002.226 2632.316 L 1028.716 2605.826 C 1038.711 2595.831 1054.833 2595.724 1064.696 2605.587 L 1064.696 2605.587 C 1074.56 2615.45 1074.452 2631.572 1064.457 2641.567 L 1020.015 2686.009 C 1010.02 2696.005 993.898 2696.112 984.034 2686.249 L 984.034 2686.249 C 982.885 2685.1 981.872 2683.866 980.993 2682.566 Z  M 978.783 2573.229 C 978.783 2560.409 989.192 2550 1002.012 2550 C 1014.833 2550 1025.241 2560.409 1025.241 2573.229 C 1025.241 2586.05 1014.833 2596.458 1002.012 2596.458 C 989.192 2596.458 978.783 2586.05 978.783 2573.229 Z " fill-rule="evenodd" fill="rgb(48,49,49)"/><path d=" M 980.993 2914.778 L 939.567 2873.352 C 929.572 2863.357 929.465 2847.234 939.328 2837.371 L 939.328 2837.371 C 949.191 2827.508 965.313 2827.615 975.309 2837.61 L 1002.226 2864.528 L 1028.716 2838.038 C 1038.711 2828.043 1054.833 2827.935 1064.696 2837.798 L 1064.696 2837.798 C 1074.56 2847.662 1074.452 2863.784 1064.457 2873.779 L 1020.015 2918.221 C 1010.02 2928.216 993.898 2928.324 984.034 2918.46 L 984.034 2918.46 C 982.885 2917.311 981.872 2916.077 980.993 2914.778 Z  M 978.783 2805.441 C 978.783 2792.62 989.192 2782.212 1002.012 2782.212 C 1014.833 2782.212 1025.241 2792.62 1025.241 2805.441 C 1025.241 2818.261 1014.833 2828.67 1002.012 2828.67 C 989.192 2828.67 978.783 2818.261 978.783 2805.441 Z " fill-rule="evenodd" fill="rgb(48,49,49)"/></g></g></svg>