<?xml version="1.0" encoding="UTF-8" standalone="no"?><!-- Generator: Gravit.io --><svg xmlns="http://www.w3.org/2000/svg" xmlns:xlink="http://www.w3.org/1999/xlink" style="isolation:isolate" viewBox="0 0 1440 720" width="1440pt" height="720pt"><defs><clipPath id="_clipPath_S1WXXqhzfDgNwi86WfyzxTvpZyEHNZ1U"><rect width="1440" height="720"/></clipPath></defs><g clip-path="url(#_clipPath_S1WXXqhzfDgNwi86WfyzxTvpZyEHNZ1U)"><rect x="0" y="0" width="1440" height="720" transform="matrix(1,0,0,1,0,0)" fill="rgb(43,45,49)"/><g><g><path d=" M 784.057 316.104 L 717.191 249.239 C 701.055 233.103 700.882 207.074 716.805 191.151 L 716.805 191.151 C 732.728 175.228 758.756 175.401 774.892 191.537 L 818.345 234.99 L 861.108 192.228 C 877.244 176.091 903.272 175.918 919.195 191.841 L 919.195 191.841 C 935.118 207.765 934.945 233.792 918.809 249.928 L 847.062 321.676 C 830.926 337.812 804.898 337.984 788.975 322.062 L 788.975 322.062 C 787.116 320.203 785.477 318.206 784.057 316.104 Z  M 780.501 139.608 C 780.501 118.912 797.304 102.108 818.001 102.108 C 838.698 102.108 855.501 118.912 855.501 139.608 C 855.501 160.305 838.698 177.108 818.001 177.108 C 797.304 177.108 780.501 160.305 780.501 139.608 Z " fill-rule="evenodd" fill="rgb(37,39,45)"/><path d=" M 622.057 159.642 L 555.191 92.777 C 539.055 76.641 538.882 50.613 554.805 34.69 L 554.805 34.69 C 570.728 18.767 596.756 18.94 612.892 35.076 L 656.345 78.529 L 699.108 35.766 C 715.244 19.63 741.272 19.457 757.195 35.38 L 757.195 35.38 C 773.118 51.303 772.945 77.331 756.809 93.467 L 685.062 165.214 C 668.926 181.35 642.898 181.523 626.975 165.6 L 626.975 165.6 C 625.116 163.741 623.477 161.745 622.057 159.642 Z  M 618.501 -16.853 C 618.501 -37.55 635.304 -54.353 656.001 -54.353 C 676.698 -54.353 693.501 -37.55 693.501 -16.853 C 693.501 3.844 676.698 20.647 656.001 20.647 C 635.304 20.647 618.501 3.844 618.501 -16.853 Z " fill-rule="evenodd" fill="rgb(37,39,45)"/><path d=" M 466.082 310.642 L 399.216 243.777 C 383.08 227.641 382.907 201.613 398.83 185.69 L 398.83 185.69 C 414.753 169.767 440.781 169.94 456.917 186.076 L 500.37 229.529 L 543.133 186.766 C 559.269 170.63 585.297 170.457 601.22 186.38 L 601.22 186.38 C 617.143 202.303 616.97 228.331 600.834 244.467 L 529.087 316.214 C 512.951 332.35 486.923 332.523 471 316.6 L 471 316.6 C 469.141 314.741 467.502 312.745 466.082 310.642 Z  M 462.526 134.147 C 462.526 113.45 479.329 96.647 500.026 96.647 C 520.723 96.647 537.526 113.45 537.526 134.147 C 537.526 154.844 520.723 171.647 500.026 171.647 C 479.329 171.647 462.526 154.844 462.526 134.147 Z " fill-rule="evenodd" fill="rgb(37,39,45)"/><path d=" M 622.057 465.213 L 555.191 398.347 C 539.055 382.211 538.882 356.183 554.805 340.26 L 554.805 340.26 C 570.728 324.337 596.756 324.51 612.892 340.646 L 656.345 384.099 L 699.108 341.336 C 715.244 325.2 741.272 325.027 757.195 340.95 L 757.195 340.95 C 773.118 356.873 772.945 382.901 756.809 399.037 L 685.062 470.784 C 668.926 486.92 642.898 487.093 626.975 471.17 L 626.975 471.17 C 625.116 469.311 623.477 467.315 622.057 465.213 Z  M 618.501 288.717 C 618.501 268.02 635.304 251.217 656.001 251.217 C 676.698 251.217 693.501 268.02 693.501 288.717 C 693.501 309.414 676.698 326.217 656.001 326.217 C 635.304 326.217 618.501 309.414 618.501 288.717 Z " fill-rule="evenodd" fill="rgb(37,39,45)"/></g><g><path d=" M 304.044 141.781 L 237.178 74.915 C 221.042 58.779 220.87 32.751 236.792 16.828 L 236.792 16.828 C 252.715 0.905 278.743 1.078 294.879 17.214 L 338.332 60.667 L 381.095 17.904 C 397.231 1.768 423.259 1.595 439.182 17.518 L 439.182 17.518 C 455.105 33.441 454.932 59.469 438.797 75.605 L 367.049 147.352 C 350.913 163.488 324.885 163.661 308.962 147.738 L 308.962 147.738 C 307.104 145.879 305.464 143.883 304.044 141.781 Z  M 300.488 -34.715 C 300.488 -55.412 317.291 -72.215 337.988 -72.215 C 358.685 -72.215 375.488 -55.412 375.488 -34.715 C 375.488 -14.018 358.685 2.785 337.988 2.785 C 317.291 2.785 300.488 -14.018 300.488 -34.715 Z " fill-rule="evenodd" fill="rgb(37,39,45)"/><path d=" M 142.044 -14.681 L 75.178 -81.547 C 59.042 -97.683 58.87 -123.711 74.792 -139.634 L 74.792 -139.634 C 90.715 -155.557 116.743 -155.384 132.879 -139.248 L 176.332 -95.795 L 219.095 -138.558 C 235.231 -154.694 261.259 -154.867 277.182 -138.944 L 277.182 -138.944 C 293.105 -123.021 292.932 -96.993 276.797 -80.857 L 205.049 -9.11 C 188.913 7.026 162.885 7.199 146.962 -8.724 L 146.962 -8.724 C 145.104 -10.582 143.464 -12.579 142.044 -14.681 Z  M 138.488 -191.177 C 138.488 -211.873 155.291 -228.677 175.988 -228.677 C 196.685 -228.677 213.488 -211.873 213.488 -191.177 C 213.488 -170.48 196.685 -153.677 175.988 -153.677 C 155.291 -153.677 138.488 -170.48 138.488 -191.177 Z " fill-rule="evenodd" fill="rgb(37,39,45)"/><path d=" M -13.931 136.319 L -80.797 69.453 C -96.932 53.317 -97.105 27.289 -81.182 11.366 L -81.182 11.366 C -65.26 -4.557 -39.232 -4.384 -23.096 11.752 L 20.358 55.205 L 63.12 12.442 C 79.256 -3.694 105.284 -3.867 121.208 12.056 L 121.208 12.056 C 137.13 27.979 136.958 54.007 120.822 70.143 L 49.074 141.89 C 32.938 158.026 6.911 158.199 -9.013 142.276 L -9.013 142.276 C -10.871 140.418 -12.511 138.421 -13.931 136.319 Z  M -17.487 -40.177 C -17.487 -60.873 -0.684 -77.677 20.013 -77.677 C 40.71 -77.677 57.513 -60.873 57.513 -40.177 C 57.513 -19.48 40.71 -2.677 20.013 -2.677 C -0.684 -2.677 -17.487 -19.48 -17.487 -40.177 Z " fill-rule="evenodd" fill="rgb(37,39,45)"/><path d=" M 142.044 290.889 L 75.178 224.024 C 59.042 207.888 58.87 181.859 74.792 165.937 L 74.792 165.937 C 90.715 150.014 116.743 150.187 132.879 166.323 L 176.332 209.776 L 219.095 167.013 C 235.231 150.876 261.259 150.703 277.182 166.626 L 277.182 166.626 C 293.105 182.55 292.932 208.578 276.797 224.713 L 205.049 296.461 C 188.913 312.597 162.885 312.77 146.962 296.847 L 146.962 296.847 C 145.104 294.988 143.464 292.991 142.044 290.889 Z  M 138.488 114.394 C 138.488 93.697 155.291 76.894 175.988 76.894 C 196.685 76.894 213.488 93.697 213.488 114.394 C 213.488 135.09 196.685 151.894 175.988 151.894 C 155.291 151.894 138.488 135.09 138.488 114.394 Z " fill-rule="evenodd" fill="rgb(37,39,45)"/></g><g><path d=" M 456.044 626.104 L 389.178 559.239 C 373.042 543.103 372.87 517.074 388.792 501.151 L 388.792 501.151 C 404.715 485.228 430.743 485.401 446.879 501.537 L 490.332 544.99 L 533.095 502.228 C 549.231 486.091 575.259 485.918 591.182 501.841 L 591.182 501.841 C 607.105 517.765 606.932 543.792 590.797 559.928 L 519.049 631.676 C 502.913 647.812 476.885 647.984 460.962 632.062 L 460.962 632.062 C 459.104 630.203 457.464 628.206 456.044 626.104 Z  M 452.488 449.608 C 452.488 428.912 469.291 412.108 489.988 412.108 C 510.685 412.108 527.488 428.912 527.488 449.608 C 527.488 470.305 510.685 487.108 489.988 487.108 C 469.291 487.108 452.488 470.305 452.488 449.608 Z " fill-rule="evenodd" fill="rgb(37,39,45)"/><path d=" M 294.044 469.642 L 227.178 402.777 C 211.042 386.641 210.87 360.613 226.792 344.69 L 226.792 344.69 C 242.715 328.767 268.743 328.94 284.879 345.076 L 328.332 388.529 L 371.095 345.766 C 387.231 329.63 413.259 329.457 429.182 345.38 L 429.182 345.38 C 445.105 361.303 444.932 387.331 428.797 403.467 L 357.049 475.214 C 340.913 491.35 314.885 491.523 298.962 475.6 L 298.962 475.6 C 297.104 473.741 295.464 471.745 294.044 469.642 Z  M 290.488 293.147 C 290.488 272.45 307.291 255.647 327.988 255.647 C 348.685 255.647 365.488 272.45 365.488 293.147 C 365.488 313.844 348.685 330.647 327.988 330.647 C 307.291 330.647 290.488 313.844 290.488 293.147 Z " fill-rule="evenodd" fill="rgb(37,39,45)"/><path d=" M 138.069 620.642 L 71.203 553.777 C 55.068 537.641 54.895 511.613 70.818 495.69 L 70.818 495.69 C 86.74 479.767 112.768 479.94 128.904 496.076 L 172.358 539.529 L 215.12 496.766 C 231.256 480.63 257.284 480.457 273.208 496.38 L 273.208 496.38 C 289.13 512.303 288.958 538.331 272.822 554.467 L 201.074 626.214 C 184.938 642.35 158.911 642.523 142.987 626.6 L 142.987 626.6 C 141.129 624.741 139.489 622.745 138.069 620.642 Z  M 134.513 444.147 C 134.513 423.45 151.316 406.647 172.013 406.647 C 192.71 406.647 209.513 423.45 209.513 444.147 C 209.513 464.844 192.71 481.647 172.013 481.647 C 151.316 481.647 134.513 464.844 134.513 444.147 Z " fill-rule="evenodd" fill="rgb(37,39,45)"/><path d=" M 294.044 775.213 L 227.178 708.347 C 211.042 692.211 210.87 666.183 226.792 650.26 L 226.792 650.26 C 242.715 634.337 268.743 634.51 284.879 650.646 L 328.332 694.099 L 371.095 651.336 C 387.231 635.2 413.259 635.027 429.182 650.95 L 429.182 650.95 C 445.105 666.873 444.932 692.901 428.797 709.037 L 357.049 780.784 C 340.913 796.92 314.885 797.093 298.962 781.17 L 298.962 781.17 C 297.104 779.311 295.464 777.315 294.044 775.213 Z  M 290.488 598.717 C 290.488 578.02 307.291 561.217 327.988 561.217 C 348.685 561.217 365.488 578.02 365.488 598.717 C 365.488 619.414 348.685 636.217 327.988 636.217 C 307.291 636.217 290.488 619.414 290.488 598.717 Z " fill-rule="evenodd" fill="rgb(37,39,45)"/></g><g><path d=" M -27.968 443.781 L -94.834 376.915 C -110.97 360.779 -111.143 334.751 -95.22 318.828 L -95.22 318.828 C -79.297 302.905 -53.269 303.078 -37.133 319.214 L 6.32 362.667 L 49.083 319.904 C 65.219 303.768 91.247 303.595 107.17 319.518 L 107.17 319.518 C 123.093 335.441 122.92 361.469 106.784 377.605 L 35.037 449.352 C 18.901 465.488 -7.127 465.661 -23.05 449.738 L -23.05 449.738 C -24.909 447.879 -26.548 445.883 -27.968 443.781 Z  M -31.524 267.285 C -31.524 246.588 -14.721 229.785 5.976 229.785 C 26.673 229.785 43.476 246.588 43.476 267.285 C 43.476 287.982 26.673 304.785 5.976 304.785 C -14.721 304.785 -31.524 287.982 -31.524 267.285 Z " fill-rule="evenodd" fill="rgb(37,39,45)"/><path d=" M -189.968 287.319 L -256.834 220.453 C -272.97 204.317 -273.143 178.289 -257.22 162.366 L -257.22 162.366 C -241.297 146.443 -215.269 146.616 -199.133 162.752 L -155.68 206.205 L -112.917 163.442 C -96.781 147.306 -70.753 147.133 -54.83 163.056 L -54.83 163.056 C -38.907 178.979 -39.08 205.007 -55.216 221.143 L -126.963 292.89 C -143.099 309.026 -169.127 309.199 -185.05 293.276 L -185.05 293.276 C -186.909 291.418 -188.548 289.421 -189.968 287.319 Z  M -193.524 110.823 C -193.524 90.127 -176.721 73.323 -156.024 73.323 C -135.327 73.323 -118.524 90.127 -118.524 110.823 C -118.524 131.52 -135.327 148.323 -156.024 148.323 C -176.721 148.323 -193.524 131.52 -193.524 110.823 Z " fill-rule="evenodd" fill="rgb(37,39,45)"/><path d=" M -345.943 438.319 L -412.809 371.453 C -428.945 355.317 -429.118 329.289 -413.195 313.366 L -413.195 313.366 C -397.272 297.443 -371.244 297.616 -355.108 313.752 L -311.655 357.205 L -268.892 314.442 C -252.756 298.306 -226.728 298.133 -210.805 314.056 L -210.805 314.056 C -194.882 329.979 -195.055 356.007 -211.191 372.143 L -282.938 443.89 C -299.074 460.026 -325.102 460.199 -341.025 444.276 L -341.025 444.276 C -342.884 442.418 -344.523 440.421 -345.943 438.319 Z  M -349.499 261.823 C -349.499 241.127 -332.696 224.323 -311.999 224.323 C -291.302 224.323 -274.499 241.127 -274.499 261.823 C -274.499 282.52 -291.302 299.323 -311.999 299.323 C -332.696 299.323 -349.499 282.52 -349.499 261.823 Z " fill-rule="evenodd" fill="rgb(37,39,45)"/><path d=" M -189.968 592.889 L -256.834 526.024 C -272.97 509.888 -273.143 483.859 -257.22 467.937 L -257.22 467.937 C -241.297 452.014 -215.269 452.187 -199.133 468.323 L -155.68 511.776 L -112.917 469.013 C -96.781 452.876 -70.753 452.703 -54.83 468.626 L -54.83 468.626 C -38.907 484.55 -39.08 510.578 -55.216 526.713 L -126.963 598.461 C -143.099 614.597 -169.127 614.77 -185.05 598.847 L -185.05 598.847 C -186.909 596.988 -188.548 594.991 -189.968 592.889 Z  M -193.524 416.394 C -193.524 395.697 -176.721 378.894 -156.024 378.894 C -135.327 378.894 -118.524 395.697 -118.524 416.394 C -118.524 437.09 -135.327 453.894 -156.024 453.894 C -176.721 453.894 -193.524 437.09 -193.524 416.394 Z " fill-rule="evenodd" fill="rgb(37,39,45)"/></g><g><path d=" M 784.057 959.457 L 717.191 892.592 C 701.055 876.456 700.882 850.428 716.805 834.505 L 716.805 834.505 C 732.728 818.582 758.756 818.755 774.892 834.891 L 818.345 878.344 L 861.108 835.581 C 877.244 819.445 903.272 819.272 919.195 835.195 L 919.195 835.195 C 935.118 851.118 934.945 877.146 918.809 893.282 L 847.062 965.029 C 830.926 981.165 804.898 981.338 788.975 965.415 L 788.975 965.415 C 787.116 963.556 785.477 961.56 784.057 959.457 Z  M 780.501 782.962 C 780.501 762.265 797.304 745.462 818.001 745.462 C 838.698 745.462 855.501 762.265 855.501 782.962 C 855.501 803.658 838.698 820.462 818.001 820.462 C 797.304 820.462 780.501 803.658 780.501 782.962 Z " fill-rule="evenodd" fill="rgb(37,39,45)"/><path d=" M 622.057 802.996 L 555.191 736.13 C 539.055 719.994 538.882 693.966 554.805 678.043 L 554.805 678.043 C 570.728 662.12 596.756 662.293 612.892 678.429 L 656.345 721.882 L 699.108 679.119 C 715.244 662.983 741.272 662.81 757.195 678.733 L 757.195 678.733 C 773.118 694.656 772.945 720.684 756.809 736.82 L 685.062 808.567 C 668.926 824.703 642.898 824.876 626.975 808.953 L 626.975 808.953 C 625.116 807.094 623.477 805.098 622.057 802.996 Z  M 618.501 626.5 C 618.501 605.803 635.304 589 656.001 589 C 676.698 589 693.501 605.803 693.501 626.5 C 693.501 647.197 676.698 664 656.001 664 C 635.304 664 618.501 647.197 618.501 626.5 Z " fill-rule="evenodd" fill="rgb(37,39,45)"/><path d=" M 466.082 953.996 L 399.216 887.13 C 383.08 870.994 382.907 844.966 398.83 829.043 L 398.83 829.043 C 414.753 813.12 440.781 813.293 456.917 829.429 L 500.37 872.882 L 543.133 830.119 C 559.269 813.983 585.297 813.81 601.22 829.733 L 601.22 829.733 C 617.143 845.656 616.97 871.684 600.834 887.82 L 529.087 959.567 C 512.951 975.703 486.923 975.876 471 959.953 L 471 959.953 C 469.141 958.094 467.502 956.098 466.082 953.996 Z  M 462.526 777.5 C 462.526 756.803 479.329 740 500.026 740 C 520.723 740 537.526 756.803 537.526 777.5 C 537.526 798.197 520.723 815 500.026 815 C 479.329 815 462.526 798.197 462.526 777.5 Z " fill-rule="evenodd" fill="rgb(37,39,45)"/><path d=" M 622.057 1108.566 L 555.191 1041.7 C 539.055 1025.564 538.882 999.536 554.805 983.613 L 554.805 983.613 C 570.728 967.69 596.756 967.863 612.892 983.999 L 656.345 1027.452 L 699.108 984.689 C 715.244 968.553 741.272 968.38 757.195 984.303 L 757.195 984.303 C 773.118 1000.226 772.945 1026.254 756.809 1042.39 L 685.062 1114.137 C 668.926 1130.273 642.898 1130.446 626.975 1114.523 L 626.975 1114.523 C 625.116 1112.664 623.477 1110.668 622.057 1108.566 Z  M 618.501 932.07 C 618.501 911.373 635.304 894.57 656.001 894.57 C 676.698 894.57 693.501 911.373 693.501 932.07 C 693.501 952.767 676.698 969.57 656.001 969.57 C 635.304 969.57 618.501 952.767 618.501 932.07 Z " fill-rule="evenodd" fill="rgb(37,39,45)"/></g><g><path d=" M 1117.044 626.104 L 1050.178 559.239 C 1034.042 543.103 1033.87 517.074 1049.792 501.151 L 1049.792 501.151 C 1065.715 485.228 1091.743 485.401 1107.879 501.537 L 1151.332 544.99 L 1194.095 502.228 C 1210.231 486.091 1236.259 485.918 1252.182 501.841 L 1252.182 501.841 C 1268.105 517.765 1267.932 543.792 1251.797 559.928 L 1180.049 631.676 C 1163.913 647.812 1137.885 647.984 1121.962 632.062 L 1121.962 632.062 C 1120.104 630.203 1118.464 628.206 1117.044 626.104 Z  M 1113.488 449.608 C 1113.488 428.912 1130.291 412.108 1150.988 412.108 C 1171.685 412.108 1188.488 428.912 1188.488 449.608 C 1188.488 470.305 1171.685 487.108 1150.988 487.108 C 1130.291 487.108 1113.488 470.305 1113.488 449.608 Z " fill-rule="evenodd" fill="rgb(37,39,45)"/><path d=" M 955.044 469.642 L 888.178 402.777 C 872.042 386.641 871.87 360.613 887.792 344.69 L 887.792 344.69 C 903.715 328.767 929.743 328.94 945.879 345.076 L 989.332 388.529 L 1032.095 345.766 C 1048.231 329.63 1074.259 329.457 1090.182 345.38 L 1090.182 345.38 C 1106.105 361.303 1105.932 387.331 1089.797 403.467 L 1018.049 475.214 C 1001.913 491.35 975.885 491.523 959.962 475.6 L 959.962 475.6 C 958.104 473.741 956.464 471.745 955.044 469.642 Z  M 951.488 293.147 C 951.488 272.45 968.291 255.647 988.988 255.647 C 1009.685 255.647 1026.488 272.45 1026.488 293.147 C 1026.488 313.844 1009.685 330.647 988.988 330.647 C 968.291 330.647 951.488 313.844 951.488 293.147 Z " fill-rule="evenodd" fill="rgb(37,39,45)"/><path d=" M 799.069 620.642 L 732.203 553.777 C 716.068 537.641 715.895 511.613 731.818 495.69 L 731.818 495.69 C 747.74 479.767 773.768 479.94 789.904 496.076 L 833.358 539.529 L 876.12 496.766 C 892.256 480.63 918.284 480.457 934.208 496.38 L 934.208 496.38 C 950.13 512.303 949.958 538.331 933.822 554.467 L 862.074 626.214 C 845.938 642.35 819.911 642.523 803.987 626.6 L 803.987 626.6 C 802.129 624.741 800.489 622.745 799.069 620.642 Z  M 795.513 444.147 C 795.513 423.45 812.316 406.647 833.013 406.647 C 853.71 406.647 870.513 423.45 870.513 444.147 C 870.513 464.844 853.71 481.647 833.013 481.647 C 812.316 481.647 795.513 464.844 795.513 444.147 Z " fill-rule="evenodd" fill="rgb(37,39,45)"/><path d=" M 955.044 775.213 L 888.178 708.347 C 872.042 692.211 871.87 666.183 887.792 650.26 L 887.792 650.26 C 903.715 634.337 929.743 634.51 945.879 650.646 L 989.332 694.099 L 1032.095 651.336 C 1048.231 635.2 1074.259 635.027 1090.182 650.95 L 1090.182 650.95 C 1106.105 666.873 1105.932 692.901 1089.797 709.037 L 1018.049 780.784 C 1001.913 796.92 975.885 797.093 959.962 781.17 L 959.962 781.17 C 958.104 779.311 956.464 777.315 955.044 775.213 Z  M 951.488 598.717 C 951.488 578.02 968.291 561.217 988.988 561.217 C 1009.685 561.217 1026.488 578.02 1026.488 598.717 C 1026.488 619.414 1009.685 636.217 988.988 636.217 C 968.291 636.217 951.488 619.414 951.488 598.717 Z " fill-rule="evenodd" fill="rgb(37,39,45)"/></g><g><path d=" M 1591.057 461.781 L 1524.191 394.915 C 1508.055 378.779 1507.882 352.751 1523.805 336.828 L 1523.805 336.828 C 1539.728 320.905 1565.756 321.078 1581.892 337.214 L 1625.345 380.667 L 1668.108 337.904 C 1684.244 321.768 1710.272 321.595 1726.195 337.518 L 1726.195 337.518 C 1742.118 353.441 1741.945 379.469 1725.809 395.605 L 1654.062 467.352 C 1637.926 483.488 1611.898 483.661 1595.975 467.738 L 1595.975 467.738 C 1594.116 465.879 1592.477 463.883 1591.057 461.781 Z  M 1587.501 285.285 C 1587.501 264.588 1604.304 247.785 1625.001 247.785 C 1645.698 247.785 1662.501 264.588 1662.501 285.285 C 1662.501 305.982 1645.698 322.785 1625.001 322.785 C 1604.304 322.785 1587.501 305.982 1587.501 285.285 Z " fill-rule="evenodd" fill="rgb(37,39,45)"/><path d=" M 1429.057 305.319 L 1362.191 238.453 C 1346.055 222.317 1345.882 196.289 1361.805 180.366 L 1361.805 180.366 C 1377.728 164.443 1403.756 164.616 1419.892 180.752 L 1463.345 224.205 L 1506.108 181.442 C 1522.244 165.306 1548.272 165.133 1564.195 181.056 L 1564.195 181.056 C 1580.118 196.979 1579.945 223.007 1563.809 239.143 L 1492.062 310.89 C 1475.926 327.026 1449.898 327.199 1433.975 311.276 L 1433.975 311.276 C 1432.116 309.418 1430.477 307.421 1429.057 305.319 Z  M 1425.501 128.823 C 1425.501 108.127 1442.304 91.323 1463.001 91.323 C 1483.698 91.323 1500.501 108.127 1500.501 128.823 C 1500.501 149.52 1483.698 166.323 1463.001 166.323 C 1442.304 166.323 1425.501 149.52 1425.501 128.823 Z " fill-rule="evenodd" fill="rgb(37,39,45)"/><path d=" M 1273.082 456.319 L 1206.216 389.453 C 1190.08 373.317 1189.907 347.289 1205.83 331.366 L 1205.83 331.366 C 1221.753 315.443 1247.781 315.616 1263.917 331.752 L 1307.37 375.205 L 1350.133 332.442 C 1366.269 316.306 1392.297 316.133 1408.22 332.056 L 1408.22 332.056 C 1424.143 347.979 1423.97 374.007 1407.834 390.143 L 1336.087 461.89 C 1319.951 478.026 1293.923 478.199 1278 462.276 L 1278 462.276 C 1276.141 460.418 1274.502 458.421 1273.082 456.319 Z  M 1269.526 279.823 C 1269.526 259.127 1286.329 242.323 1307.026 242.323 C 1327.723 242.323 1344.526 259.127 1344.526 279.823 C 1344.526 300.52 1327.723 317.323 1307.026 317.323 C 1286.329 317.323 1269.526 300.52 1269.526 279.823 Z " fill-rule="evenodd" fill="rgb(37,39,45)"/><path d=" M 1429.057 610.889 L 1362.191 544.024 C 1346.055 527.888 1345.882 501.859 1361.805 485.937 L 1361.805 485.937 C 1377.728 470.014 1403.756 470.187 1419.892 486.323 L 1463.345 529.776 L 1506.108 487.013 C 1522.244 470.876 1548.272 470.703 1564.195 486.626 L 1564.195 486.626 C 1580.118 502.55 1579.945 528.578 1563.809 544.713 L 1492.062 616.461 C 1475.926 632.597 1449.898 632.77 1433.975 616.847 L 1433.975 616.847 C 1432.116 614.988 1430.477 612.991 1429.057 610.889 Z  M 1425.501 434.394 C 1425.501 413.697 1442.304 396.894 1463.001 396.894 C 1483.698 396.894 1500.501 413.697 1500.501 434.394 C 1500.501 455.09 1483.698 471.894 1463.001 471.894 C 1442.304 471.894 1425.501 455.09 1425.501 434.394 Z " fill-rule="evenodd" fill="rgb(37,39,45)"/></g><g><path d=" M 1270.032 141.781 L 1203.166 74.915 C 1187.03 58.779 1186.857 32.751 1202.78 16.828 L 1202.78 16.828 C 1218.703 0.905 1244.731 1.078 1260.867 17.214 L 1304.32 60.667 L 1347.083 17.904 C 1363.219 1.768 1389.247 1.595 1405.17 17.518 L 1405.17 17.518 C 1421.093 33.441 1420.92 59.469 1404.784 75.605 L 1333.037 147.352 C 1316.901 163.488 1290.873 163.661 1274.95 147.738 L 1274.95 147.738 C 1273.091 145.879 1271.452 143.883 1270.032 141.781 Z  M 1266.476 -34.715 C 1266.476 -55.412 1283.279 -72.215 1303.976 -72.215 C 1324.673 -72.215 1341.476 -55.412 1341.476 -34.715 C 1341.476 -14.018 1324.673 2.785 1303.976 2.785 C 1283.279 2.785 1266.476 -14.018 1266.476 -34.715 Z " fill-rule="evenodd" fill="rgb(37,39,45)"/><path d=" M 1108.032 -14.681 L 1041.166 -81.547 C 1025.03 -97.683 1024.857 -123.711 1040.78 -139.634 L 1040.78 -139.634 C 1056.703 -155.557 1082.731 -155.384 1098.867 -139.248 L 1142.32 -95.795 L 1185.083 -138.558 C 1201.219 -154.694 1227.247 -154.867 1243.17 -138.944 L 1243.17 -138.944 C 1259.093 -123.021 1258.92 -96.993 1242.784 -80.857 L 1171.037 -9.11 C 1154.901 7.026 1128.873 7.199 1112.95 -8.724 L 1112.95 -8.724 C 1111.091 -10.582 1109.452 -12.579 1108.032 -14.681 Z  M 1104.476 -191.177 C 1104.476 -211.873 1121.279 -228.677 1141.976 -228.677 C 1162.673 -228.677 1179.476 -211.873 1179.476 -191.177 C 1179.476 -170.48 1162.673 -153.677 1141.976 -153.677 C 1121.279 -153.677 1104.476 -170.48 1104.476 -191.177 Z " fill-rule="evenodd" fill="rgb(37,39,45)"/><path d=" M 952.057 136.319 L 885.191 69.453 C 869.055 53.317 868.882 27.289 884.805 11.366 L 884.805 11.366 C 900.728 -4.557 926.756 -4.384 942.892 11.752 L 986.345 55.205 L 1029.108 12.442 C 1045.244 -3.694 1071.272 -3.867 1087.195 12.056 L 1087.195 12.056 C 1103.118 27.979 1102.945 54.007 1086.809 70.143 L 1015.062 141.89 C 998.926 158.026 972.898 158.199 956.975 142.276 L 956.975 142.276 C 955.116 140.418 953.477 138.421 952.057 136.319 Z  M 948.501 -40.177 C 948.501 -60.873 965.304 -77.677 986.001 -77.677 C 1006.698 -77.677 1023.501 -60.873 1023.501 -40.177 C 1023.501 -19.48 1006.698 -2.677 986.001 -2.677 C 965.304 -2.677 948.501 -19.48 948.501 -40.177 Z " fill-rule="evenodd" fill="rgb(37,39,45)"/><path d=" M 1108.032 290.889 L 1041.166 224.024 C 1025.03 207.888 1024.857 181.859 1040.78 165.937 L 1040.78 165.937 C 1056.703 150.014 1082.731 150.187 1098.867 166.323 L 1142.32 209.776 L 1185.083 167.013 C 1201.219 150.876 1227.247 150.703 1243.17 166.626 L 1243.17 166.626 C 1259.093 182.55 1258.92 208.578 1242.784 224.713 L 1171.037 296.461 C 1154.901 312.597 1128.873 312.77 1112.95 296.847 L 1112.95 296.847 C 1111.091 294.988 1109.452 292.991 1108.032 290.889 Z  M 1104.476 114.394 C 1104.476 93.697 1121.279 76.894 1141.976 76.894 C 1162.673 76.894 1179.476 93.697 1179.476 114.394 C 1179.476 135.09 1162.673 151.894 1141.976 151.894 C 1121.279 151.894 1104.476 135.09 1104.476 114.394 Z " fill-rule="evenodd" fill="rgb(37,39,45)"/></g></g><g><g><g><g><path d=" M 627.187 468.268 L 554.821 397.486 C 538.546 381.567 538.372 355.889 554.432 340.18 L 554.432 340.18 C 570.492 324.472 596.745 324.642 613.02 340.561 L 685.386 411.343 C 701.661 427.262 701.836 452.94 685.775 468.648 L 685.775 468.648 C 669.715 484.357 643.462 484.186 627.187 468.268 Z " fill="rgb(12,215,154)"/><path d=" M 627.614 412.024 L 699.98 341.242 C 716.255 325.323 742.507 325.152 758.568 340.861 L 758.568 340.861 C 774.628 356.57 774.454 382.248 758.179 398.167 L 685.813 468.948 C 669.537 484.867 643.285 485.038 627.225 469.329 L 627.225 469.329 C 611.164 453.62 611.339 427.943 627.614 412.024 Z " fill="rgb(70,236,186)"/></g></g><ellipse vector-effect="non-scaling-stroke" cx="656.5007601128983" cy="289.330851033051" rx="37.82347773137985" ry="36.99546822109777" fill="rgb(12,215,154)"/></g></g></g></svg>