<?xml version="1.0" encoding="UTF-8" standalone="no"?><!-- Generator: Gravit.io -->
<svg xmlns="http://www.w3.org/2000/svg"
    xmlns:xlink="http://www.w3.org/1999/xlink" style="isolation:isolate" viewBox="1363.952 1268.217 226.048 231.783" width="226.048pt" height="231.783pt">
    <g>
        <g>
            <g>
                <path d="M 1447.913 1487.094 L 1376.166 1415.347 C 1360.03 1399.211 1359.857 1373.183 1375.78 1357.26 L 1375.78 1357.26 C 1391.703 1341.337 1417.731 1341.51 1433.867 1357.646 L 1505.614 1429.393 C 1521.75 1445.529 1521.923 1471.557 1506 1487.48 L 1506 1487.48 C 1490.077 1503.403 1464.049 1503.23 1447.913 1487.094 Z" style="stroke:none;fill:#0CD79A;stroke-miterlimit:10;"/>
                <path d="M 1448.336 1430.083 L 1520.083 1358.336 C 1536.219 1342.2 1562.247 1342.027 1578.17 1357.95 L 1578.17 1357.95 C 1594.093 1373.873 1593.92 1399.901 1577.784 1416.037 L 1506.037 1487.784 C 1489.901 1503.92 1463.873 1504.093 1447.95 1488.17 L 1447.95 1488.17 C 1432.027 1472.247 1432.2 1446.219 1448.336 1430.083 Z" style="stroke:none;fill:#46ECBA;stroke-miterlimit:10;"/>
            </g>
        </g>
        <circle vector-effect="non-scaling-stroke" cx="1476.9757902332801" cy="1305.7170059216023" r="37.5" fill="rgb(12,215,154)"/>
    </g>
</svg>